<?xml version="1.0" encoding="UTF-8" standalone="no"?>
<!-- Created with Inkscape (http://www.inkscape.org/) -->

<svg
   width="210mm"
   height="297mm"
   viewBox="0 0 210 297"
   version="1.1"
   id="svg1"
   xmlns="http://www.w3.org/2000/svg"
   xmlns:svg="http://www.w3.org/2000/svg">
  <defs
     id="defs1" />
  <g
     id="layer1">
    <path
       style="fill:#000000;stroke-width:0.292428"
       d="m 48.845496,253.15721 c -0.311163,-0.1906 -4.448269,-3.83262 -9.193558,-8.09339 -4.745295,-4.26076 -10.875687,-9.74868 -13.623091,-12.19537 -3.553014,-3.16411 -5.084414,-4.72175 -5.303984,-5.39484 -0.169782,-0.52047 -0.304177,-1.36813 -0.298665,-1.88367 0.0057,-0.51556 0.164629,-1.23035 0.353599,-1.58842 0.188963,-0.35807 2.057698,-2.53463 4.152744,-4.83679 2.095047,-2.30215 12.571882,-13.70815 23.281855,-25.34666 13.017081,-14.14565 19.791896,-21.29818 20.435543,-21.57489 0.569799,-0.24497 1.350731,-0.3362 1.913005,-0.22347 0.638746,0.12806 2.017698,1.1554 4.20747,3.13464 1.79153,1.61929 5.92895,5.35248 9.194273,8.29598 3.265316,2.9435 6.087359,5.7046 6.271198,6.13578 0.183839,0.43118 0.334253,1.23797 0.334253,1.79288 0,0.81383 -1.594167,3.60219 -8.244562,14.42055 -4.534505,7.37641 -10.497565,17.08458 -13.251243,21.57372 -2.753678,4.48914 -7.370687,11.9956 -10.260018,16.681 -3.814539,6.18577 -5.488469,8.64888 -6.111908,8.9934 -0.47222,0.26096 -1.405909,0.47034 -2.074867,0.46528 -0.668951,-0.005 -1.470875,-0.16513 -1.782044,-0.35573 z m 36.681687,-77.6463 c -0.362086,-0.15512 -1.214732,-0.76926 -1.894779,-1.36476 -0.688628,-0.60303 -1.374446,-1.52958 -1.547915,-2.09128 -0.243616,-0.78884 -0.222646,-1.22821 0.09628,-2.01693 0.224256,-0.55462 1.760047,-2.70517 3.41287,-4.77902 1.652823,-2.07384 3.28957,-3.93949 3.637211,-4.14589 0.347649,-0.20641 1.025073,-0.38011 1.505392,-0.386 0.57968,-0.007 1.411025,0.40077 2.472562,1.21311 0.879596,0.67309 1.727736,1.48036 1.884769,1.79392 0.157026,0.31355 0.285025,0.95313 0.28445,1.42129 -5.75e-4,0.46816 -0.238579,1.25931 -0.528886,1.75809 -0.2903,0.4988 -1.833665,2.51953 -3.4297,4.49051 -1.814334,2.24057 -3.255959,3.74171 -3.846656,4.00547 -0.519629,0.23202 -1.04434,0.41323 -1.166022,0.40269 -0.12169,-0.0106 -0.517495,-0.14608 -0.879574,-0.3012 z m 12.185994,-17.78604 c -0.804741,-0.67978 -1.595482,-1.50017 -1.757194,-1.82307 -0.161718,-0.32292 -0.294029,-1.01311 -0.294029,-1.53377 0,-0.52066 0.147388,-1.24377 0.327526,-1.60694 0.180137,-0.36316 1.712507,-2.45866 3.405259,-4.65664 1.692761,-2.19799 3.355831,-4.2045 3.695721,-4.45891 0.3399,-0.25441 1.20323,-0.46258 1.91852,-0.46258 1.08149,0 1.49861,0.18119 2.47651,1.07571 0.7786,0.71219 1.27773,1.47952 1.4771,2.27075 0.25188,0.99961 0.21165,1.40458 -0.24599,2.47631 -0.30092,0.7047 -1.81835,2.84566 -3.37207,4.75771 -1.55373,1.91204 -3.14036,3.7879 -3.52585,4.16858 -0.3855,0.38068 -1.13772,0.7679 -1.67162,0.86048 -0.829864,0.14392 -1.18301,-0.011 -2.433883,-1.06763 z m 24.095893,-14.3547 c -0.4773,-0.22769 -4.10522,-3.28958 -8.06205,-6.80419 -3.95683,-3.51462 -7.48064,-6.81656 -7.83071,-7.33764 -0.35006,-0.52109 -0.63074,-1.36943 -0.62371,-1.88521 0.007,-0.51577 0.16613,-1.30786 0.35359,-1.76021 0.18747,-0.45233 2.39293,-3.37707 4.90105,-6.49942 2.50811,-3.12235 5.2082,-6.50681 6.00021,-7.52103 l 1.44001,-1.84404 -0.85344,-0.87378 c -0.46939,-0.48057 -1.2282,-1.69127 -1.68624,-2.69045 -0.45805,-0.99916 -0.96999,-2.61856 -1.13766,-3.59865 -0.22143,-1.29429 -0.2173,-2.31924 0.015,-3.745081 0.17595,-1.0797 0.64663,-2.65842 1.04598,-3.50825 0.39935,-0.84984 2.64454,-3.99378 4.98931,-6.98654 2.34477,-2.99276 8.21128,-10.406644 13.03669,-16.475299 4.82541,-6.068655 10.85193,-13.64921 13.39228,-16.845682 2.54415,-3.201262 5.2061,-6.243579 5.9263,-6.773111 0.71913,-0.528735 1.95595,-1.237533 2.74851,-1.575108 1.07577,-0.458204 2.12214,-0.618697 4.12836,-0.63322 1.90041,-0.01376 3.1157,0.140261 4.15018,0.525959 0.80455,0.299974 2.0983,1.048164 2.875,1.662644 0.7767,0.614481 4.44647,4.107674 8.15506,7.762654 3.70857,3.654977 8.02868,8.008084 9.60021,9.673571 1.96586,2.083377 3.09221,3.550175 3.61012,4.701318 0.41402,0.920241 0.89475,2.534474 1.06826,3.587181 0.2348,1.424469 0.23176,2.455851 -0.0118,4.032483 -0.18006,1.165158 -0.66139,2.847432 -1.06963,3.738393 -0.43712,0.954017 -2.5577,3.827787 -5.15865,6.990917 -2.42903,2.95404 -9.8739,12.172711 -16.54415,20.485941 -6.67025,8.31322 -12.90566,15.97607 -13.85648,17.02854 -0.96081,1.06355 -2.42859,2.29538 -3.30422,2.77307 -0.86652,0.47272 -2.34349,1.00831 -3.28216,1.1902 -1.19957,0.23247 -2.31444,0.23861 -3.75222,0.0207 -1.12506,-0.17051 -2.67129,-0.59768 -3.43607,-0.94927 -1.14675,-0.52718 -1.46703,-0.57138 -1.82703,-0.2521 -0.24008,0.21293 -2.84058,3.39245 -5.77887,7.0656 -2.9383,3.67316 -5.59041,6.8392 -5.89359,7.03566 -0.30318,0.19646 -0.98061,0.43375 -1.50542,0.52732 -0.54574,0.0973 -1.32565,-0.007 -1.82199,-0.24386 z"
       id="path1" />
  </g>
</svg>
